<?xml version="1.0" standalone="no"?><!DOCTYPE svg PUBLIC "-//W3C//DTD SVG 1.1//EN" "http://www.w3.org/Graphics/SVG/1.1/DTD/svg11.dtd"><svg class="icon" width="200px" height="200.00px" viewBox="0 0 1024 1024" version="1.1" xmlns="http://www.w3.org/2000/svg"><path d="M512 512.06m-343.82 0a343.82 343.82 0 1 0 687.64 0 343.82 343.82 0 1 0-687.64 0Z" fill="#EAA420" /><path d="M845 512.06a332.87 332.87 0 0 1-424.38 320.25c-64.88-18.46-122.87-56.89-165.86-108.78A331.8 331.8 0 0 1 180 538.25a333.23 333.23 0 0 1 194.86-329.73c62.95-28.75 135.38-36.68 203.14-22.89a332 332 0 0 1 267 326.43c0 14 21.78 14 21.74 0-0.18-73.15-22.81-145.61-65.4-205.21a358.93 358.93 0 0 0-167.52-128c-69.64-25.66-147.58-28.32-218.93-8A354.91 354.91 0 0 0 208.31 695.4c36.84 60.83 92.15 110.38 157 139.64A358.75 358.75 0 0 0 583 859.62c70.35-14.15 135.81-50.55 185.35-102.41s83.06-118.65 94-189.6a370.36 370.36 0 0 0 4.4-55.55c-0.02-13.99-21.75-14.01-21.75 0z" fill="#133131" /><path d="M512 441.24v-192s57.58-11.24 109.17 24.31" fill="#F7ECBF" /><path d="M522.87 441.24v-192l-8 10.48a6.9 6.9 0 0 1 2.29-0.37c1.6 0.39-2.79 0.26-0.78 0.1 0.56 0 1.1-0.13 1.65-0.19 1.33-0.13 2.65-0.27 4-0.37a161.33 161.33 0 0 1 24.48 0 141.8 141.8 0 0 1 69.17 24.08c11.61 7.88 22.5-10.95 11-18.77-33.14-22.47-77.81-33.07-117.55-25.43-4.63 0.89-8 6-8 10.49v192c0 14 21.74 14 21.74 0z" fill="#133131" /><path d="M461.93 462L326.15 326.2s32.75-48.67 94.39-60" fill="#F7ECBF" /><path d="M469.62 454.3L350.9 335.58l-17.07-17.07q0.85 6.58 1.7 13.18c0.47-0.7 1-1.35 1.47-2 1.25-1.8-1.61 1.92 0.5-0.63 0.88-1.08 1.76-2.16 2.66-3.22a160.82 160.82 0 0 1 17.27-17.26 142.09 142.09 0 0 1 66-31.86c5.77-1.1 9.06-8 7.59-13.37-1.66-6-7.58-8.69-13.37-7.59-39.16 7.47-78.3 31.6-100.89 65-2.68 4-1.55 9.93 1.7 13.18L437.17 452.6l17.07 17.07c9.91 9.91 25.29-5.46 15.38-15.37z" fill="#133131" /><path d="M441.19 512.06h-192s-11.25-57.58 24.33-109.17" fill="#F7ECBF" /><path d="M441.19 501.19h-192l10.48 8a6.9 6.9 0 0 1-0.37-2.29c0.39-1.6 0.26 2.79 0.1 0.77 0-0.55-0.13-1.09-0.19-1.64-0.13-1.33-0.26-2.65-0.37-4a160 160 0 0 1 0-24.48 141.6 141.6 0 0 1 24.08-69.17c7.87-11.61-11-22.5-18.78-11C241.63 430.54 231 475.21 238.68 515c0.89 4.63 6 8 10.48 8h192c14 0 14-21.74 0-21.74z" fill="#133131" /><path d="M461.93 562.13L326.14 697.91s-48.66-32.75-60-94.39" fill="#F7ECBF" /><path d="M454.24 554.44L335.53 673.16l-17.07 17.07 13.17-1.7c-0.69-0.47-1.35-1-2-1.47-1.8-1.25 1.92 1.61-0.63-0.5-1.07-0.88-2.16-1.76-3.21-2.66a160.82 160.82 0 0 1-17.26-17.27 141.89 141.89 0 0 1-31.86-66c-1.1-5.77-8-9.06-13.38-7.59-6 1.66-8.69 7.58-7.59 13.37 7.47 39.16 31.61 78.3 65 100.89 3.95 2.68 9.92 1.55 13.17-1.7l118.67-118.71 17.07-17.07c9.91-9.91-5.46-25.29-15.37-15.38z" fill="#133131" /><path d="M512 582.87v192s-57.58 11.25-109.17-24.33" fill="#F7ECBF" /><path d="M501.13 582.87v192l8-10.48a6.9 6.9 0 0 1-2.29 0.37c-1.6-0.39 2.79-0.26 0.78-0.1-0.55 0-1.1 0.13-1.65 0.19-1.32 0.13-2.65 0.26-4 0.37a159.91 159.91 0 0 1-24.47 0 141.6 141.6 0 0 1-69.18-24.08c-11.61-7.87-22.5 11-11 18.78 33.13 22.47 77.8 33.06 117.54 25.42 4.63-0.89 8-6 8-10.48v-192c0-14-21.74-14-21.74 0z" fill="#133131" /><path d="M562.07 562.13l135.79 135.79s-32.76 48.66-94.4 60" fill="#F7ECBF" /><path d="M554.39 569.82L673.1 688.53l17.07 17.07-1.7-13.17c-0.47 0.69-1 1.35-1.47 2-1.24 1.8 1.62-1.93-0.49 0.63-0.89 1.07-1.77 2.16-2.67 3.21a159.91 159.91 0 0 1-17.27 17.26 141.85 141.85 0 0 1-66 31.86c-5.77 1.1-9.06 8-7.59 13.38 1.66 6 7.58 8.69 13.37 7.59 39.16-7.47 78.3-31.61 100.89-65 2.68-3.95 1.55-9.92-1.7-13.17L586.83 571.52l-17.07-17.07c-9.91-9.91-25.28 5.46-15.37 15.37z" fill="#133131" /><path d="M582.82 512.06h192s11.25 57.58-24.33 109.17" fill="#F7ECBF" /><path d="M582.82 522.93h192l-10.48-8a6.9 6.9 0 0 1 0.37 2.29c-0.39 1.6-0.26-2.79-0.1-0.78 0 0.55 0.13 1.1 0.19 1.65 0.13 1.32 0.27 2.65 0.37 4a161.2 161.2 0 0 1 0 24.47 141.8 141.8 0 0 1-24.08 69.18c-7.88 11.61 11 22.5 18.77 11 22.47-33.13 33.07-77.8 25.43-117.54-0.9-4.63-6-8-10.49-8h-192c-14 0-14 21.74 0 21.74z" fill="#133131" /><path d="M562.08 462l135.78-135.8s48.67 32.76 60 94.4" fill="#F7ECBF" /><path d="M569.76 469.67L688.48 351l17.07-17.07-13.18 1.7c0.69 0.47 1.35 1 2 1.47 1.8 1.24-1.92-1.62 0.63 0.49 1.08 0.89 2.16 1.76 3.22 2.67a161.74 161.74 0 0 1 17.26 17.27 141.93 141.93 0 0 1 31.85 66c1.11 5.77 8 9.06 13.38 7.59 6-1.66 8.69-7.59 7.59-13.37-7.47-39.16-31.6-78.3-65-100.89-4-2.68-9.93-1.55-13.18 1.69L571.46 437.23l-17.07 17.07c-9.91 9.91 5.46 25.28 15.37 15.37z" fill="#133131" /></svg>