<?xml version="1.0" standalone="no"?><!DOCTYPE svg PUBLIC "-//W3C//DTD SVG 1.1//EN" "http://www.w3.org/Graphics/SVG/1.1/DTD/svg11.dtd"><svg class="icon" width="200px" height="200.00px" viewBox="0 0 1024 1024" version="1.1" xmlns="http://www.w3.org/2000/svg"><path d="M675.22 691.72l-25.36-44.06-32.46-56.39L507.33 400l-105-182.36-47.13 81.39-80.9 139.69-12.25 21.16-84.33 145.6-24 41.48L128 691.41a594.93 594.93 0 0 0 547.2 0.31z" fill="#F7ECBF" /><path d="M690 720.41l-25.24-43.85-32.31-56.13L522.89 430.1 418.42 248.6l-46.91 81L291 468.65l-12.2 21.05-83.93 144.91L171 675.9l-25.6 44.2a592.09 592.09 0 0 0 544.62 0.31z" fill="#D2294B" /><path d="M390.75 617.93v47.37c0 14 21.74 14 21.74 0v-47.37c0-14-21.74-14-21.74 0z" fill="#133131" /><path d="M457.39 610.93l29.27 37.25" fill="#FFFFFF" /><path d="M449.71 618.61L479 655.87c3.63 4.62 11.57 3.8 15.37 0 4.56-4.57 3.64-10.75 0-15.38l-29.27-37.25c-3.63-4.62-11.57-3.8-15.37 0-4.57 4.56-3.64 10.74 0 15.37z" fill="#133131" /><path d="M525.69 592.87l33.5 33.5" fill="#FFFFFF" /><path d="M518 600.55l33.5 33.5c9.91 9.91 25.29-5.46 15.38-15.37l-33.5-33.5c-9.91-9.91-25.29 5.46-15.38 15.37z" fill="#133131" /><path d="M345.84 610.93l-29.27 37.25" fill="#FFFFFF" /><path d="M338.16 603.24l-29.28 37.25c-3.62 4.61-4.49 10.87 0 15.38 3.77 3.76 11.73 4.64 15.38 0l29.27-37.26c3.62-4.61 4.5-10.87 0-15.37-3.77-3.77-11.73-4.64-15.37 0z" fill="#133131" /><path d="M277.55 592.87l-33.5 33.5" fill="#FFFFFF" /><path d="M269.86 585.18l-33.5 33.5c-9.91 9.91 5.46 25.28 15.37 15.37q16.75-16.74 33.5-33.5c9.91-9.9-5.46-25.28-15.37-15.37zM401.12 729.74a584.16 584.16 0 0 1-211.68-40.2 569.65 569.65 0 0 1-53.93-24.63c-5.2-2.7-11.81-1.39-14.88 3.9Q107 692.44 93.26 716.07a11 11 0 0 0 3.9 14.87 600 600 0 0 0 609 0.8 11.05 11.05 0 0 0 3.9-14.87l-27.46-47.75c-3-5.28-9.68-6.59-14.87-3.9a575.6 575.6 0 0 1-203.28 61.24 606.08 606.08 0 0 1-63.33 3.28c-14 0-14 21.75 0 21.75 75.15 0 150.25-13.8 220.19-41.43A626 626 0 0 0 678.7 684l-14.87-3.9 27.48 47.75 3.9-14.87c-68.72 40.24-145.62 66.49-224.81 75.58a585.87 585.87 0 0 1-241.29-22.49 578 578 0 0 1-121-53.89L112 727l27.37-47.26-14.88 3.9a602.79 602.79 0 0 0 276.59 67.81c14.04 0.08 14.05-21.66 0.04-21.71z" fill="#133131" /><path d="M682.6 669.12l-55.48-96.4-47-81.56q-31.26-54.33-62.54-108.66-21.51-37.38-43-74.76C454 272 434 235.92 412.89 200.52c-0.39-0.65-0.76-1.32-1.14-2-4.06-7.06-14.69-7-18.77 0l-48.36 83.51-66.08 114.1-37.45 64.67q-33.93 58.61-67.87 117.2-24.22 41.76-48.37 83.53l-4.22 7.28c-2.83 4.89-1.34 12.16 3.9 14.87a604.47 604.47 0 0 0 212.41 64.26 602 602 0 0 0 225.73-18.23A604.86 604.86 0 0 0 678.7 684c12.43-6.43 1.45-25.2-11-18.77a575.6 575.6 0 0 1-203.28 61.24 585.11 585.11 0 0 1-218.53-18 576.88 576.88 0 0 1-110.41-43.55l3.9 14.87 49.79-86L252 485.31l38.86-67.09 68.34-118L409.18 214q1.29-2.22 2.57-4.44H393l53.3 92.6q25.49 44.28 51 88.55 27.28 47.38 54.56 94.79t54.56 94.79l53.42 92.81 4.05 7c6.92 12.12 25.71 1.18 18.71-10.98z" fill="#133131" /><path d="M881.65 457.38l-49.08-13.22-62.83-16.93-213-57.39-203.22-54.73L377.75 406l41.57 156 6.29 23.61 43.33 162.59 12.35 46.32 13.21 49.58a594.89 594.89 0 0 0 387.15-386.7z" fill="#F7ECBF" /><path d="M912.38 467.23l-48.86-13.16L801 437.22 589 380.1l-202.26-54.47 24.11 90.45 41.37 155.25 6.27 23.51 43.12 161.82 12.29 46.09 13.15 49.36a592.07 592.07 0 0 0 385.33-384.88z" fill="#D2294B" /><path d="M636.01 598.66l33.5 33.5" fill="#FFFFFF" /><path d="M628.32 606.35l33.5 33.5c9.91 9.9 25.28-5.47 15.37-15.38L643.69 591c-9.9-9.9-25.28 5.47-15.37 15.38z" fill="#133131" /><path d="M670.5 554.27l47.03 5.65" fill="#FFFFFF" /><path d="M670.5 565.14l47 5.65c5.84 0.7 10.88-5.5 10.88-10.87 0-6.46-5-10.17-10.88-10.88l-47-5.64c-5.84-0.7-10.87 5.5-10.87 10.87 0 6.46 5 10.17 10.87 10.87zM706 504.08h47.37c14 0 14-21.74 0-21.74H706c-14 0-14 21.74 0 21.74z" fill="#133131" /><path d="M591.62 633.15l5.64 47.04" fill="#FFFFFF" /><path d="M580.75 633.15l5.64 47c0.7 5.83 4.5 10.87 10.87 10.87 5.33 0 11.58-5 10.87-10.87l-5.64-47c-0.7-5.83-4.5-10.87-10.87-10.87-5.33 0-11.58 5-10.87 10.87zM519.68 668.67v47.38c0 14 21.75 14 21.75 0v-47.38c0-14-21.75-14-21.75 0zM714.72 678.08a584.6 584.6 0 0 1-178 121.21 572.18 572.18 0 0 1-55.83 20.8 11.07 11.07 0 0 0-7.59 13.37q7 26.38 14.06 52.77a11 11 0 0 0 13.37 7.59 600.05 600.05 0 0 0 431.09-429.91 11.05 11.05 0 0 0-7.6-13.37L871 436.21a11.09 11.09 0 0 0-13.37 7.59 575.73 575.73 0 0 1-100.2 186.87 603.08 603.08 0 0 1-42.71 47.41c-9.9 9.91 5.47 25.29 15.38 15.37 53.23-53.28 96.67-116.26 126.57-185.45q12.41-28.68 22-58.44l-13.38 7.59 53.2 14.33-7.59-13.37c-20 76.63-55.5 149.17-104.64 211.39a586.39 586.39 0 0 1-187 155.66A578.49 578.49 0 0 1 495 872.86l13.38 7.59-14.08-52.77-7.59 13.37a602.32 602.32 0 0 0 243.39-147.6c9.9-9.88-5.44-25.25-15.38-15.37z" fill="#133131" /><path d="M871 436.21l-107.37-28.93-90.87-24.48-121.06-32.61-83.29-22.44C428.61 317 388.91 305.7 349 295.57c-0.74-0.18-1.47-0.39-2.2-0.59a11 11 0 0 0-13.37 13.37q12.42 46.62 24.85 93.24 17 63.71 33.95 127.41 9.63 36.11 19.25 72.21 17.43 65.43 34.87 130.85 12.44 46.63 24.86 93.27 1.08 4.06 2.17 8.13c1.47 5.52 7.79 9.36 13.37 7.59a600.16 600.16 0 0 0 391.87-391.47c4.25-13.36-16.74-19.08-21-5.78a575.64 575.64 0 0 1-100.84 187.68 585.92 585.92 0 0 1-166.33 141 577.72 577.72 0 0 1-109.52 47.6l13.37 7.59q-12.8-48-25.58-96-16.16-60.59-32.29-121.16-10-37.46-20-74.91-17.55-65.89-35.12-131.78l-25.66-96.31q-0.68-2.47-1.33-5L341 316l103.17 27.79 98.65 26.57 105.6 28.45L754 427.21l103.4 27.85 7.83 2.11c13.54 3.65 19.31-17.32 5.77-20.96z" fill="#133131" /></svg>