<?xml version="1.0" standalone="no"?><!DOCTYPE svg PUBLIC "-//W3C//DTD SVG 1.1//EN" "http://www.w3.org/Graphics/SVG/1.1/DTD/svg11.dtd"><svg class="icon" width="200px" height="200.00px" viewBox="0 0 1024 1024" version="1.1" xmlns="http://www.w3.org/2000/svg"><path d="M544.594164 40.540006v152.900684c-358.616889 32.111738-222.32139 314.339095-222.32139 314.339095-77.800325 52.803357-127.311833 132.205012-127.311833 221.024111 0 159.00601 99.651388 254.656099 354.307486 254.656098 250.950742 0 354.303432-95.674413 354.303433-254.656098 0-88.794774-49.511509-168.204537-127.311834-221.024111 10.690399-29.890146 16.613294-62.370799 16.613294-96.375755 0-146.758874-109.056669-217.748478-243.588677-217.748478" fill="#FFE585" /><path d="M776.260026 507.779785c10.690399-29.890146 16.613294-62.370799 16.613294-96.375755 0-123.184861-76.847635-192.962318-181.08815-212.206659v-0.02027l-0.154052-0.008108c-19.901089-3.664817-40.795408-5.509387-62.346475-5.509387l-4.889125 0.895935 0.210808-1.110797c-4.718857 0.421616-9.307985 0.91215-13.856573 1.422955 2.545912 1.686464 5.229661 3.368874 8.022867 5.063446l-220.788979 211.120187s156.087129 14.375486 236.587419-87.55425c27.384774-34.673867 36.198171-58.783008 64.864009-58.783008 43.325104 0 60.33569 48.129095 23.841577 130.891516-13.722792 31.114454-79.884081 60.96406-41.33459 99.513552 77.800325 52.815519 127.311833 104.349974 127.311834 193.152856 0 158.993848-70.11394 287.894849-354.303433 254.656099-19.953791-2.326996-39.100835-0.656748-57.270866-1.836462 55.543862 27.56315 131.560426 42.376468 231.59289 42.376467 250.950742 0 354.303432-95.674413 354.303433-254.656098-0.004054-88.815044-49.515563-168.220753-127.315888-221.032219z" fill="#F0CF7D" /><path d="M524.324162 40.540006v152.900684a20.270003 20.270003 0 0 1 18.461918-20.188922c-121.409209 10.872829-202.614894 51.031759-241.358977 119.361938-56.354662 99.408148 0.16216 218.940354 2.602669 223.983531a20.278111 20.278111 0 0 1 6.859369-25.588852c-86.556966 58.738414-136.198203 145.421054-136.198203 237.787403 0 88.847476 30.129332 157.157385 89.544764 203.000023 62.719443 48.396659 155.953347 71.926078 285.044887 71.926078 125.860501 0 221.271404-24.186167 283.573285-71.87743 60.384338-46.215606 90.987988-114.533624 90.987988-203.048671 0-92.358241-49.641237-179.032772-136.198202-237.783349a20.237571 20.237571 0 0 1 7.690439 23.586175c11.801196-33.023889 17.797062-67.742349 17.797062-103.202692 0-144.589984-103.579714-238.018481-263.85868-238.01848-11.205258 0-20.270003 9.076907-20.270003 20.270002s9.064745 20.270003 20.270003 20.270003c107.958035 0 223.318675 51.879045 223.318675 197.478475 0 30.78608-5.189121 60.919466-15.429526 89.552872a20.282165 20.282165 0 0 0 7.698547 23.594284c75.254412 51.096623 118.429518 125.532127 118.429518 204.25271 0 76.280074-24.563189 132.176634-75.088199 170.859907-55.073598 42.149444-142.185961 63.534297-258.933069 63.534297-299.412265 0-334.037484-133.765802-334.037484-234.382042 0-78.720583 43.162944-153.164195 118.425465-204.25271a20.270003 20.270003 0 0 0 6.867477-25.588852c-0.490534-1.017554-49.689885-105.781036-3.725627-186.548889 31.84012-55.949262 102.35946-89.183958 209.603991-98.787886a20.282165 20.282165 0 0 0 18.461918-20.188923V40.540006a20.270003 20.270003 0 1 0-40.540005 0z" fill="#6E6E96" /><path d="M374.053861 367.981882a99.635172 228.799683 65.481 1 0-82.696191-181.300882 99.635172 228.799683 65.481 1 0 82.696191 181.300882Z" fill="#76DFBF" /><path d="M410.544582 286.905673c134.049582-163.355952-124.125389 48.919625-172.088269 53.674968-54.388471 5.387767-80.131375-14.407918-20.914589-87.611006 2.671586-3.299956-59.399216 30.295546-60.035694 26.063169-31.057698 34.041443-44.545358 67.892347-32.983349 93.254175 22.836185 50.070961 134.548224 48.137203 249.523734-4.305349 106.093195-48.396659 177.820626-122.880811 170.336941-173.434197-30.23879 33.153617-77.119253 66.485609-133.838774 92.35824z" fill="#65BFA4" /><path d="M365.65058 349.544036c-77.058443 35.148185-157.54657 48.035853-200.300059 32.067144-11.42012-4.264809-18.944345-10.228243-22.369975-17.728144-3.421576-7.499901-2.983744-17.091666 1.268902-28.511786 15.964654-42.757544 78.461127-95.098745 155.523623-130.242876 108.578297-49.535833 207.118888-48.420983 222.670034-14.334946C537.986144 224.875411 474.236985 300.008203 365.65058 349.544036z m193.671768-175.578764c-28.369896-62.192423-147.188598-64.653201-276.377433-5.724249-88.883962 40.540006-156.585771 99.148692-176.673344 152.941225-8.047191 21.551067-8.108001 42.133228-0.178376 59.520836s23.513203 30.82662 45.060216 38.881919c53.796587 20.091627 142.429201 7.386389 231.317217-33.15767 129.188836-58.928952 205.221616-150.269639 176.85172-212.462061z" fill="#6E6E96" /></svg>