<?xml version="1.0" standalone="no"?><!DOCTYPE svg PUBLIC "-//W3C//DTD SVG 1.1//EN" "http://www.w3.org/Graphics/SVG/1.1/DTD/svg11.dtd"><svg class="icon" width="200px" height="200.00px" viewBox="0 0 1024 1024" version="1.1" xmlns="http://www.w3.org/2000/svg"><path d="M403.7 63.8h-1.5 1.5z" fill="#0B8731" /><path d="M512 511.1m-447.4 0a447.4 447.4 0 1 0 894.8 0 447.4 447.4 0 1 0-894.8 0Z" fill="#C66700" /><path d="M512 93.8c56.1 0 110.6 11 161.9 32.6 49.6 20.9 94.1 50.8 132.4 88.9 38.3 38.1 68.5 82.6 89.6 132 21.9 51.2 33.1 105.7 33.4 161.8 0.3 56.4-10.5 111.1-32 162.6-20.8 49.8-50.7 94.6-88.8 133.1-38.2 38.5-82.7 68.8-132.2 90.1-51.3 22-105.9 33.3-162.3 33.6h-2c-56.1 0-110.6-11-161.9-32.6C300.5 875 256 845.1 217.7 807c-38.3-38.1-68.5-82.5-89.6-132-21.9-51.2-33.1-105.7-33.4-161.9-0.3-56.4 10.5-111.1 32-162.6 20.8-49.8 50.7-94.6 88.8-133.1 38.2-38.5 82.7-68.8 132.2-90.1C399 105.3 453.6 94 510 93.8h2m0-30h-2.2c-247 1.1-446.4 202.4-445.2 449.5 1.2 246.4 201.2 445.2 447.3 445.2h2.2c247.1-1.2 446.4-202.4 445.2-449.5C958.2 262.7 758.1 63.8 512 63.8z" fill="#333333" /><path d="M602.4 869.8c0 48-44.1 87-98.4 87s-98.4-38.9-98.4-87 98.4-87 98.4-87 98.4 39 98.4 87z" fill="#FFB000" /><path d="M504 815.6c8.5 3.9 20.8 10.1 33 18 27.9 17.9 35.4 31.2 35.4 36.2 0 14.5-6.6 28.4-18.7 39-13.1 11.6-30.8 18-49.8 18-19 0-36.6-6.4-49.8-18-12.1-10.7-18.7-24.5-18.7-39 0-5 7.3-18.1 34.7-35.8 12.5-8 25.2-14.4 33.9-18.4m0-32.8s-98.4 38.9-98.4 87c0 48 44.1 87 98.4 87s98.4-38.9 98.4-87c0-48-98.4-87-98.4-87z" fill="#333333" /><path d="M791.4 810.9c-3 57.8-59.8 101.8-126.9 98.3-67.1-3.5-119-53.2-116-111s154.6-105.6 154.6-105.6 91.4 60.5 88.3 118.3z" fill="#FFB000" /><path d="M698.2 726c7.8 6 18.4 14.7 29 25.3 22.5 22.4 35 43.6 34.2 58-1 18.3-10.2 35.5-26 48.5-16.9 13.9-39.5 21.6-63.5 21.6-2 0-3.9-0.1-5.9-0.2-25.3-1.3-48.4-10.9-65.1-26.9-15.5-14.8-23.5-33.5-22.5-52.6 0-0.7 0.8-7.4 14.9-19.6 11-9.5 26.6-19.4 46.5-29.4 22.2-11.1 44.5-19.7 58.4-24.7m5-33.5s-151.6 47.8-154.6 105.6 48.9 107.5 116 111c2.5 0.1 5 0.2 7.5 0.2 63.8 0 116.5-42.9 119.4-98.5 3-57.7-88.3-118.3-88.3-118.3z" fill="#333333" /><path d="M904.3 697.4c-3 57.8-41.8 95.5-108.7 89.4-16.5-1.5-81.7-21.5-78.7-79.3s182.3-116 182.3-116 8.1 48.1 5.1 105.9z" fill="#FFB000" /><path d="M873.6 632.7c1.2 17.3 2 39.4 0.7 63.1-1 19.3-7.1 35-17.7 45.3-11 10.8-26.9 16.3-47.2 16.3-3.6 0-7.3-0.2-11.1-0.5-3.9-0.4-19.3-4.4-32.4-13.4-18-12.5-19.5-25.6-19.1-34.4 0.1-0.6 5.4-20.8 76.6-54.9 17.9-8.4 35.6-15.8 50.2-21.5m25.7-41.2S720 649.7 717 707.5s62.2 77.8 78.7 79.3c4.8 0.4 9.4 0.6 13.8 0.6 58.4 0 92-36.4 94.8-90 3-57.8-5-105.9-5-105.9z" fill="#333333" /><path d="M112.9 689.2c2.9 55 39.5 90.8 102.7 85 15.6-1.4 77.1-20.4 74.3-75.4S117.6 588.5 117.6 588.5s-7.6 45.8-4.7 100.7z" fill="#FFB000" /><path d="M143.4 629.9c13 5.2 28.4 11.6 43.9 19 22.3 10.7 40.1 21.1 53.1 30.9 17 12.8 19.3 20.1 19.5 20.7 0.4 8-1 19.9-17.2 31.3-12.1 8.5-26.1 12.1-29.9 12.5-3.5 0.3-7 0.5-10.3 0.5-18.7 0-33.3-5-43.4-15-9.7-9.6-15.3-24.2-16.3-42.2-1.1-21.4-0.5-41.6 0.6-57.7m-25.8-41.4s-7.6 45.8-4.7 100.7c2.7 51.1 34.5 85.6 89.6 85.6 4.2 0 8.6-0.2 13-0.6 15.6-1.4 77.1-20.4 74.3-75.4S117.6 588.5 117.6 588.5z" fill="#333333" /><path d="M216.5 805.9c3 57.8 59.8 101.8 126.9 98.3 67.1-3.5 119-53.2 116-111S304.7 687.5 304.7 687.5s-91.2 60.6-88.2 118.4z" fill="#FFB000" /><path d="M309.7 721c13.7 5 35.7 13.5 57.7 24.5 20 10 35.8 20 46.9 29.5 14.3 12.3 15 19 15.1 19.7 1 19.1-7 37.8-22.5 52.6-16.7 16-39.8 25.5-65.1 26.9-2 0.1-4 0.2-5.9 0.2-24 0-46.5-7.7-63.5-21.6-15.8-13-25-30.2-26-48.5-0.7-14.3 11.5-35.2 33.6-57.4 10.7-10.8 21.8-19.8 29.7-25.9m-5-33.5s-91.2 60.5-88.2 118.3c2.9 55.6 55.7 98.5 119.4 98.5 2.5 0 5-0.1 7.5-0.2 67.1-3.5 119-53.2 116-111S304.7 687.5 304.7 687.5z" fill="#333333" /><path d="M624.3 694.7c0 63.4-53.9 114.8-120.3 114.8s-120.3-51.4-120.3-114.8S504 579.8 504 579.8s120.3 51.4 120.3 114.9z" fill="#FFB000" /><path d="M504 613c10.6 5.2 26.8 14 43.1 25.2 15.2 10.5 27 20.9 35.2 30.9 5.5 6.7 12 16.5 12 25.7 0 46.8-40.5 84.8-90.3 84.8s-90.3-38-90.3-84.8c0-9 6.4-18.8 11.8-25.4 8.1-9.9 19.8-20.2 34.7-30.6 16.3-11.5 33-20.5 43.8-25.8m0-33.2s-120.3 51.4-120.3 114.8S437.5 809.5 504 809.5s120.3-51.4 120.3-114.8S504 579.8 504 579.8z" fill="#333333" /><path d="M449.7 579.3c3.5 60.5-46.7 136.1-111.8 139.9-65.1 3.7-120.7-42.3-124.1-102.8s80.7-129.7 80.7-129.7 151.7 32.1 155.2 92.6z" fill="#FFB000" /><path d="M302.7 519.6c13.8 3.6 35.8 10 57.4 18.8 19.5 8 34.9 16.3 45.6 24.7 8.5 6.7 13.8 13.4 14 17.9 1.3 22.5-8 49.9-24.2 71.5-16.6 22.1-38.3 35.5-59.4 36.7-1.9 0.1-3.8 0.2-5.6 0.2-46.3 0-84.4-32.8-86.8-74.7-0.9-16.6 10.3-40 31.6-65.9 9.9-12.1 20-22.3 27.4-29.2m-8.3-32.9s-84.2 69.2-80.7 129.7c3.3 58.2 54.9 103 116.8 103 2.4 0 4.9-0.1 7.4-0.2 65.1-3.7 115.3-79.4 111.8-139.9s-155.3-92.6-155.3-92.6z" fill="#333333" /><path d="M446.9 400.9c2.9 50.5-48 114.1-113.1 117.8-65.1 3.7-117.3-36.9-120.2-87.4s79-106.3 79-106.3 151.5 25.4 154.3 75.9z" fill="#FFB000" /><path d="M299.9 357c12.3 2.5 32.4 7.1 53.2 13.6 52.5 16.5 62.7 30.7 63.9 32.7 0.7 16.6-8.2 37.2-23.4 53.9-17 18.8-39.4 30.3-61.5 31.5-2.2 0.1-4.4 0.2-6.5 0.2-22.6 0-43.7-6.8-59.3-19.2-13.8-11-21.9-25.2-22.8-40.1-0.6-11.3 10.3-29.4 29.2-48.6 9.9-10 20.1-18.5 27.2-24m-7.3-32s-81.9 55.8-79 106.3c2.8 48.3 50.7 87.6 112 87.6 2.7 0 5.5-0.1 8.3-0.2 65.1-3.7 116-67.4 113.1-117.8-2.9-50.5-154.4-75.9-154.4-75.9z" fill="#333333" /><path d="M571.5 416.8c-2.9 50.5 51.7 98.5 116.8 102.2 65.1 3.7 119.8-22.1 122.6-72.6S726 330 726 330s-151.6 36.3-154.5 86.8z" fill="#FFB000" /><path d="M719 362.9c7.8 6.6 18.7 16.3 29.3 27.6 24.9 26.4 33.2 45.3 32.7 54.2-0.7 12.7-7.2 22.6-19.8 30.4-14.7 9.2-36.3 14.2-60.7 14.2-3.4 0-7-0.1-10.5-0.3-24.4-1.4-48.4-10.9-65.8-26.2-15.1-13.2-23.4-29.2-22.7-43.8 0.9-1.8 9.7-17.3 63.9-38.4 20.5-8 40.7-14.1 53.6-17.7m7-32.9s-151.5 36.3-154.4 86.7c-2.9 50.5 51.7 98.5 116.8 102.2 4.1 0.2 8.2 0.4 12.2 0.4 59.6 0 107.7-25.7 110.4-72.9 2.8-50.5-85-116.4-85-116.4z" fill="#333333" /><path d="M277.2 501.3c3.5 60.5-46.7 123.5-111.8 127.2-65.1 3.7-93.6-37.8-97.1-98.3s67-139.3 67-139.3 138.4 49.9 141.9 110.4z" fill="#FFB000" /><path d="M144.6 426.9c12.2 5.3 28.8 13 45.4 22.5 41.3 23.6 56.6 43.6 57.2 53.6 1.2 21.8-7.2 45-23.1 63.7-16.4 19.2-37.8 30.5-60.5 31.8-2.1 0.1-4.2 0.2-6.2 0.2-19.3 0-33.2-5.5-42.6-16.7-9.5-11.5-15.3-30-16.6-53.5-1-18 8.6-44.3 27.2-73.9 6.7-10.7 13.6-20.3 19.2-27.7m-9.3-36.1s-70.5 78.9-67 139.3c3.3 58 29.6 98.5 89.1 98.5 2.6 0 5.2-0.1 7.9-0.2 65.1-3.7 115.2-66.7 111.8-127.2-3.4-60.4-141.8-110.4-141.8-110.4z" fill="#333333" /><path d="M736.3 526.8c-3.5 60.5 56.7 99.3 121.8 103 65.1 3.7 93.6-37.8 97.1-98.3s-63.3-135-63.3-135-152.1 69.9-155.6 130.3z" fill="#FFB000" /><path d="M883.6 434.1c4.8 6.4 10.3 14.2 15.7 23.1 17.7 28.6 26.9 54.4 25.9 72.7-1.3 23.5-7.1 42.1-16.6 53.5-9.3 11.2-23.2 16.7-42.6 16.7-2 0-4.1-0.1-6.2-0.2-26.9-1.5-52.3-10.3-69.9-23.9-16.8-13.1-24.7-29-23.7-47.4 0.1-2.3 3.1-23.7 65-64.1 19.2-12.5 38.4-23.1 52.4-30.4m8.2-37.6s-152.1 69.8-155.6 130.3c-3.5 60.5 56.7 99.3 121.8 103 2.7 0.2 5.4 0.2 7.9 0.2 59.5 0 85.8-40.5 89.1-98.5 3.6-60.4-63.2-135-63.2-135z" fill="#333333" /><path d="M754.6 394.8c22.9 31.5 69.7 72 126 39 74.6-43.7 30.9-126.6 15.6-151.9-35.8-59.2-141.5-113.5-141.5-113.5s-38.6 173.4-0.1 226.4z" fill="#FFB000" /><path d="M776.5 215.6c6.1 3.8 12.6 8 19.3 12.6 36.6 24.9 62.4 48.9 74.8 69.3 8.7 14.3 28.1 50.7 20.8 79.4-3.2 12.6-11.7 22.8-25.9 31.1-9.4 5.5-18.3 8.2-27.1 8.2-10.5 0-21.3-3.9-32.3-11.5-9.6-6.7-19.2-16.4-27.2-27.4-4.1-5.6-16.7-30.2-8.9-112 1.8-18.1 4.1-35.2 6.5-49.7m-21.8-47.2s-38.6 173.3-0.1 226.4c16.8 23.2 46.7 51.3 83.7 51.3 13.3 0 27.4-3.6 42.3-12.3 74.6-43.7 30.9-126.6 15.6-151.9-35.8-59.2-141.5-113.5-141.5-113.5z" fill="#333333" /><path d="M262 394.8c-22.9 31.5-69 56.8-125.3 23.8-74.7-43.6-23.2-108.4-7.9-133.8 35.8-59.2 140.5-96.5 140.5-96.5s31.2 153.5-7.3 206.5z" fill="#FFB000" /><path d="M245.8 231c1.7 12.6 3.3 27.6 4.4 43.3 4.6 71-7.2 95.6-12.5 102.9-5.9 8.1-22.4 26.9-48.7 26.9-11.8 0-24.3-3.8-37.1-11.4-13.6-8-21.6-16.7-23.8-25.8-4.4-18.3 11.7-43.4 21.3-58.4 1.9-2.9 3.6-5.6 5.2-8.2 11.8-19.5 36.6-40 71.6-59.2 6.8-3.7 13.5-7.1 19.6-10.1m23.5-42.7s-104.7 37.3-140.5 96.5c-15.3 25.3-66.8 90.2 7.8 133.8 18.7 11 36.3 15.5 52.3 15.5 32.1 0 57.8-18.3 73-39.3 38.6-53 7.4-206.5 7.4-206.5z" fill="#333333" /><path d="M555.9 582.3c-3.5 60.5 46.7 136.1 111.8 139.9 65.1 3.7 120.7-42.3 124.1-102.8s-80.7-129.7-80.7-129.7-151.8 32.1-155.2 92.6z" fill="#FFB000" /><path d="M702.9 522.6c7.2 6.8 17 16.7 26.8 28.4 21.7 26.2 33.2 49.9 32.2 66.7-2.4 41.9-40.5 74.7-86.8 74.7-1.9 0-3.8-0.1-5.6-0.2-21.1-1.2-42.7-14.6-59.4-36.7-16.2-21.6-25.5-49-24.2-71.5 0.3-4.5 5.5-11.2 14-17.9 10.7-8.4 26-16.7 45.6-24.7 21.7-8.9 43.6-15.2 57.4-18.8m8.3-32.9s-151.8 32.1-155.3 92.6c-3.5 60.5 46.7 136.1 111.8 139.9 2.5 0.1 4.9 0.2 7.4 0.2 61.9 0 113.5-44.8 116.8-103 3.4-60.5-80.7-129.7-80.7-129.7z" fill="#333333" /><path d="M624.3 492.7c0 63.4-53.9 114.8-120.3 114.8s-120.3-51.4-120.3-114.8S504 377.8 504 377.8s120.3 51.4 120.3 114.9z" fill="#FFB000" /><path d="M504 411c10.6 5.2 26.8 14 43.1 25.2 15.2 10.5 27 20.9 35.2 30.9 5.5 6.7 12 16.5 12 25.7 0 46.8-40.5 84.8-90.3 84.8s-90.3-38-90.3-84.8c0-9 6.4-18.8 11.8-25.4 8.1-9.9 19.8-20.2 34.7-30.6 16.3-11.5 33-20.5 43.8-25.8m0-33.2s-120.3 51.4-120.3 114.8S437.5 607.5 504 607.5s120.3-51.4 120.3-114.8S504 377.8 504 377.8z" fill="#333333" /><path d="M244.8 243.2a267.2 178.8 0 1 0 534.4 0 267.2 178.8 0 1 0-534.4 0Z" fill="#FFF080" /><path d="M532.5 211.2c-35.7 0-64.6 15.4-64.6 34.4s28.9 34.4 64.6 34.4c35.7 0 64.6-15.4 64.6-34.4-0.1-19-29-34.4-64.6-34.4z m0 58.7c-25.1 0-45.5-10.9-45.5-24.3s20.4-24.3 45.5-24.3 45.5 10.9 45.5 24.3-20.4 24.3-45.5 24.3zM534.2 189.7s8.4-13.9 11-30.9c1.7-11.1 3.3-30.9-11-30.9-15.5 0-17.1 9.8-14.6 30.9 2.1 17 14.6 30.9 14.6 30.9zM429.5 148c-0.5 0-1 0.1-1.5 0.2-5.6 1.7-2.3 5.4 6.8 12.7 7.3 5.9 17.2 9.5 17.2 9.5s-2.4-5.9-8.1-12.3c-3.3-3.8-9.4-10.1-14.4-10.1zM385.1 208.2c28.6 7.5 57.4 8.7 57.4 8.7s-18.4-10.8-44.6-20.5c-13.3-4.9-35.2-12.4-47.7-12.4-3.6 0-6.4 0.6-7.9 2.1-7.8 7.1 7.3 12.7 42.8 22.1zM359.1 248.5c13.3-0.5 24.1-3.2 24.1-3.2s-10.9-1.9-24.1-2.4c-2.8-0.1-6.3-0.2-9.8-0.2-7.3 0-14.4 0.5-14.4 2.7 0 2.6 4.4 3.5 13.8 3.5 3.1-0.2 6.5-0.3 10.4-0.4zM385.2 283.1c-18.8 4.7-51.8 13.9-44.6 20.5 2.6 2.4 6.2 3.5 11.1 3.5 9.7 0 24.4-4.4 46.3-12.2 26.6-9.4 42.8-22.2 42.8-22.2s-26.8 3.2-55.6 10.4zM432.5 333.2c-4.3 3.3-11.5 9.4-7 10.7 0.8 0.3 1.6 0.4 2.4 0.4 3.8 0 7.4-3 12.6-8.7 5.1-5.5 5.9-11.1 5.9-11.1s-7.3 3.6-13.9 8.7zM530.7 301.5s-8.4 13.9-11 30.9c-1.7 11.1-3.3 30.9 11 30.9 15.5 0 17.1-9.8 14.6-30.9-2-17-14.6-30.9-14.6-30.9zM615.9 321.8s2 5.1 6.9 10.5c2.8 3.2 8.1 8.6 12.3 8.6 0.4 0 0.9-0.1 1.3-0.2 4.7-1.5 2-4.6-5.8-10.8-6.3-5-14.7-8.1-14.7-8.1zM679.9 283.1c-28.6-7.5-57.4-8.7-57.4-8.7s18.4 10.8 44.6 20.5c13.3 4.9 35.2 12.4 47.7 12.4 3.6 0 6.4-0.6 7.9-2.1 7.7-7.1-7.4-12.8-42.8-22.1zM719.1 242.5c-3 0-6.5 0.1-10.6 0.2-13.6 0.5-24.8 3.3-24.8 3.3s11.2 1.9 24.8 2.5c2.9 0.1 6.5 0.2 10 0.2 7.5 0 14.8-0.5 14.8-2.8 0-2.6-4.5-3.4-14.2-3.4zM624.2 218.5s26.8-3.1 55.6-10.4c18.8-4.7 51.8-13.9 44.6-20.5-2.6-2.4-6.2-3.5-11.1-3.5-9.7 0-24.4 4.4-46.3 12.2-26.5 9.4-42.8 22.2-42.8 22.2zM634 160.7c4.8-3.7 13-10.6 7.9-12.1-0.9-0.3-1.8-0.4-2.7-0.4-4.3 0-8.3 3.4-14.3 9.8-5.8 6.2-6.7 12.5-6.7 12.5s8.4-4.1 15.8-9.8z" fill="#F8D81E" /><path d="M512 64.5c-54.1 0-104.4 10.8-146.4 29.2 26.5-5.2 54.9-8 84.3-8 147.6 0 267.2 70.5 267.2 157.6S597.4 400.8 449.9 400.8c-29.5 0-57.8-2.8-84.3-8 42 18.4 92.3 29.2 146.4 29.2 147.6 0 267.2-80 267.2-178.8S659.5 64.5 512 64.5z" fill="#D6C03E" /><path d="M588.8 400.8c-147.6 0-267.2-70.5-267.2-157.6S441.2 85.7 588.8 85.7c20.7 0 40.8 1.4 60.1 4-40-16-86.8-25.2-136.9-25.2-147.6 0-267.2 80-267.2 178.8S364.4 422 512 422c50 0 96.8-9.2 136.9-25.2-19.4 2.6-39.5 4-60.1 4z" fill="#FFFFFF" /><path d="M512 94.5c33.3 0 65.6 4.3 95.8 12.9 28.8 8.1 54.5 19.7 76.4 34.4 41.9 28 64.9 64.1 64.9 101.5s-23.1 73.5-64.9 101.5c-21.9 14.7-47.6 26.2-76.4 34.4-30.3 8.6-62.5 12.9-95.8 12.9s-65.6-4.3-95.8-12.9c-28.8-8.1-54.5-19.7-76.4-34.4-41.9-28-64.9-64.1-64.9-101.5s23.1-73.5 64.9-101.5c21.9-14.7 47.6-26.2 76.4-34.4 30.2-8.6 62.5-12.9 95.8-12.9m0-30c-147.6 0-267.2 80-267.2 178.8S364.4 422 512 422s267.2-80 267.2-178.8S659.5 64.5 512 64.5z" fill="#333333" /><path d="M504 660.2l-15.5 117.4s11.7 2 15.5 2c3.9 0 15.5-2 15.5-2L504 660.2zM503 485.5L487.5 576s9.1 1.5 15.5 1.5c6.9 0 15.5-1.2 15.5-1.2L503 485.5zM703.3 438.5L682 488.2s9.5 1.1 15.9 1.1c6.9 0 15.3-0.5 15.3-0.5l-9.9-50.3zM314.2 434.1l26.9 53.5s-6.9 1.4-15.9 1.3c-9.5-0.1-16.4-1.4-16.4-1.4l5.4-53.4zM314.2 570.3l1.1 117.8s11.7 1.3 15.6 1.3 15.4-1.7 15.4-1.7l-32.1-117.4zM157.1 483l1.9 115.8s8.8 0 17.5-2.1c11.8-2.9 21.1-8.2 21.1-8.2L157.1 483zM197.6 330L155 394.8s11.6 6 25.1 8.6c10.8 2 25.1-1.6 25.1-1.6l-7.6-71.8zM824.7 336.7l45.1 68.7s-11.1 7.6-24.6 10.1c-10.8 2-25.1-3.2-25.1-3.2l4.6-75.6zM880.5 489.7l-9.9 110.2s-10.4 0.4-20.8-0.9c-12.1-1.4-24.9-5.5-24.9-5.5l55.6-103.8zM693.2 573.3l-1.1 117.8s-11.7 1.3-15.6 1.3c-3.9 0-15.4-1.7-15.4-1.7l32.1-117.4zM504 866.8l-15.5 58.7s11.4 1.3 15.3 1.3 15.8-1.3 15.8-1.3L504 866.8zM691.8 774.9l-32.6 103.5s12.8 0.9 16.7 0.9 17.8-2.2 17.8-2.2l-1.9-102.2zM846.8 674.5l-52.2 81.8s13.3 1.2 17.2 1.2 17.9-2 17.9-2l17.1-81zM164.3 661.8l52.2 81.8s-13.3 1.2-17.2 1.2c-3.9 0-17.9-2-17.9-2l-17.1-81zM315.5 770L348 873.6s-12.8 0.9-16.7 0.9-17.8-2.2-17.8-2.2l2-102.3z" fill="#FFDF99" /></svg>