<?xml version="1.0" standalone="no"?><!DOCTYPE svg PUBLIC "-//W3C//DTD SVG 1.1//EN" "http://www.w3.org/Graphics/SVG/1.1/DTD/svg11.dtd"><svg class="icon" width="200px" height="200.00px" viewBox="0 0 1024 1024" version="1.1" xmlns="http://www.w3.org/2000/svg"><path d="M64.4 355C68.72 598.69 267.28 795 512 795s443.28-196.31 447.6-440H64.4z" fill="#E39535" /><path d="M96.4 355c4.31 226.02 188.55 408 415.6 408s411.29-181.98 415.6-408H96.4z" fill="#F6D499" /><path d="M375.46 671.43c29.04 12.19 60.08 20.54 92.48 24.54 1.33 0.16 2.65 0.24 3.96 0.24 17.44 0 32.11-14.28 32.11-32.2V376.85L360.28 625.77c-9.62 16.67-2.57 38.21 15.18 45.66zM520 376.85v287.18c0 17.92 14.67 32.2 32.11 32.2 1.3 0 2.62-0.08 3.96-0.24 32.4-4 63.44-12.36 92.48-24.54 17.75-7.45 24.79-28.99 15.17-45.66L520 376.85zM829.02 355H541.85l248.93 143.72a32.058 32.058 0 0 0 16.09 4.32c12.42 0 24.4-7.16 29.57-19.49 12.19-29.04 20.54-60.08 24.54-92.48 2.36-19.12-12.69-36.07-31.96-36.07zM482.15 355H194.98c-19.26 0-34.31 16.95-31.95 36.06 4 32.4 12.36 63.44 24.54 92.48 5.17 12.33 17.15 19.49 29.57 19.49 5.46 0 11-1.38 16.09-4.32L482.15 355zM782.44 512.37l-248.6-143.53 143.53 248.6c6.01 10.4 16.91 16.12 27.98 16.12 6.69 0 13.44-2.08 19.22-6.47a353.252 353.252 0 0 0 67.51-67.51c11.66-15.35 7.05-37.57-9.64-47.21zM241.56 512.37c-16.69 9.63-21.3 31.86-9.64 47.2a353.252 353.252 0 0 0 67.51 67.51 31.616 31.616 0 0 0 19.21 6.47c11.07 0 21.97-5.71 27.98-16.12l143.53-248.6-248.59 143.54z" fill="#E39535" /></svg>