<?xml version="1.0" standalone="no"?><!DOCTYPE svg PUBLIC "-//W3C//DTD SVG 1.1//EN" "http://www.w3.org/Graphics/SVG/1.1/DTD/svg11.dtd"><svg class="icon" width="200px" height="200.00px" viewBox="0 0 1024 1024" version="1.1" xmlns="http://www.w3.org/2000/svg"><path d="M213.829803 541.870599l0.004121 0.028851c-0.482216-2.765529-44.730681-278.832101 237.604698-497.964219a16.49838 16.49838 0 0 1-26.575457-13.864739c-0.140131 2.761408-3.157072 68.585946 21.551344 150.002133 32.893722 108.395552 99.798095 192.433015 193.492242 243.028597a16.486015 16.486015 0 1 0 15.665836-29.011265c-207.525963-112.06369-197.89813-359.86911-197.774484-362.358499a16.486015 16.486015 0 1 0-26.575457-13.848253C275.45865 138.779278 215.754545 275.872861 193.098638 369.591738c-24.679565 102.089651-12.27796 174.970204-11.738043 178.024238a16.486015 16.486015 0 0 0 19.107292 13.357794 16.477772 16.477772 0 0 0 13.361916-19.103171z" fill="#6E6E96" /><path d="M476.538581 699.967366c34.332127 120.104744-16.91053 250.406089-137.007032 284.738216-120.108866 34.332127-263.586658-40.308308-297.914664-160.417173-34.332127-120.100623 35.197643-245.295424 155.298266-279.627552 120.100623-34.323884 245.291303 35.205886 279.62343 155.306509z" fill="#ED8585" /><path d="M460.683155 704.50102c29.674828 103.804196-9.228047 231.063871-125.689382 264.35738-55.017955 15.723537-117.965684 7.307426-172.699255-23.092786-51.98865-28.875256-90.194991-74.801174-104.83045-126.006738-15.393817-53.847448-8.898327-110.476911 18.295355-159.440377 27.193683-48.967587 71.825448-84.408399 125.681139-99.806338 111.173445-31.768552 227.46992 32.819535 259.242593 143.988859z m-268.30578-175.687345c-62.317138 17.81314-113.971946 58.830346-145.439628 115.492781-31.471804 56.666557-38.989427 122.190225-21.176287 184.515607 17.017689 59.547488 60.948799 112.677794 120.525137 145.765227 62.325381 34.616511 134.410484 44.079484 197.770363 25.969596 122.103674-34.905016 187.260528-168.928079 148.328803-305.119053-36.767936-128.648622-171.351523-203.396216-300.008388-166.624158z" fill="#6E6E96" /><path d="M896.58989 400.099109c96.781154 78.972136 129.159688 215.19196 50.195796 311.977235-78.968014 96.781154-239.372823 117.479346-336.16222 38.511333-96.777032-78.959771-111.218782-221.444281-32.254889-318.225435 78.959771-96.793518 221.436038-111.227025 318.221313-32.263133z" fill="#ED8585" /><path d="M886.162485 412.87165c83.650042 68.256226 124.419959 194.934768 47.842417 288.781411-74.731108 91.588059-223.900698 108.820067-312.970517 36.153832-43.391193-35.403718-70.399408-85.591271-76.04999-141.309881-5.650582-55.726854 10.736518-110.320294 46.148479-153.715609 35.403718-43.395314 85.587149-70.407651 141.30576-76.058232 55.735097-5.650582 110.324415 10.736518 153.723851 46.148479z m-320.574692 9.067308c-40.97187 50.224646-59.939031 113.399057-53.402325 177.888229 6.536705 64.485049 37.79419 122.56116 88.010593 163.537152 102.435857 83.571734 273.717315 64.097628 359.358044-40.864711 80.282774-98.396783 57.202352-245.621023-52.545053-335.168938-50.228768-40.980113-113.4073-59.943152-177.89235-53.406447-64.480928 6.536705-122.56116 37.79419-163.528909 88.014715z" fill="#6E6E96" /><path d="M834.412883 419.94415c71.837812 58.616028 95.870301 159.728882 37.254273 231.566695s-177.67391 87.198657-249.519965 28.586751c-71.833691-58.611906-82.549601-164.369696-23.941816-236.207508 58.611906-71.846055 164.369696-82.561965 236.207508-23.945938zM352.196931 597.164695c71.837812 58.620149 95.870301 159.733004 37.254273 231.570816s-177.67391 87.198657-249.519965 28.586751c-71.833691-58.611906-82.549601-164.369696-23.941816-236.207508 58.611906-71.846055 164.369696-82.561965 236.207508-23.950059z" fill="#FF8F8F" /><path d="M693.34617 503.754932m-76.247821 0a76.247822 76.247822 0 1 0 152.495643 0 76.247822 76.247822 0 1 0-152.495643 0Z" fill="#FFC4C4" opacity=".58" /><path d="M224.096469 697.453249m-92.746202 0a92.746201 92.746201 0 1 0 185.492403 0 92.746201 92.746201 0 1 0-185.492403 0Z" fill="#FFC4C4" opacity=".58" /></svg>