<?xml version="1.0" standalone="no"?><!DOCTYPE svg PUBLIC "-//W3C//DTD SVG 1.1//EN" "http://www.w3.org/Graphics/SVG/1.1/DTD/svg11.dtd"><svg class="icon" width="200px" height="200.00px" viewBox="0 0 1024 1024" version="1.1" xmlns="http://www.w3.org/2000/svg"><path d="M370.4 715.2c146.3 0 264.9-104 264.9-243.4S516.7 289.2 370.4 289.2s-264.9 38.7-264.9 182.6 118.6 243.4 264.9 243.4z" fill="#D7383A" /><path d="M299.9 305.9c-79.6 44.1-108.6 110.9-87 200.5S323 641.1 478.4 641.7l-33 75.6c-54.6 23.5-111.2 23.5-169.7 0C188 682.1 153.6 646 116.5 585.2c-24.7-40.5-31.4-94.3-20-161.4l78.9-106 63.9-26.8 92.2-27.4-31.6 42.3z" fill="#C22A2B" /><path d="M370.4 715.2c146.3 0 264.9-104 264.9-243.4S516.7 289.2 370.4 289.2s-264.9 38.7-264.9 182.6 118.6 243.4 264.9 243.4z m0 19.1c-160 0-284-110.8-284-262.5 0-75.1 30.2-128.9 87.1-161.7 48.1-27.7 113.6-39.9 196.8-39.9 81.9 0 148.4 13.1 197 41.6 56.6 33.3 87 86.9 87 160 0 148.6-125.6 262.5-283.9 262.5z" fill="#333333" /><path d="M642.3 335.7c9.6-1 18.2 5.9 19.2 15.5l5 47.9-34.7 3.6-5-47.9c-1-9.5 6-18.1 15.5-19.1z" fill="#5C9619" /><path d="M623.4 413.2l-6-57.4c-0.8-7.2 1.3-14.2 5.9-19.8 4.5-5.6 11-9.1 18.1-9.8 14.8-1.6 28.1 9.2 29.6 24l6 57.4-53.6 5.6z m20.8-68h-0.8c-2.1 0.2-4 1.2-5.3 2.9-1.3 1.6-1.9 3.7-1.7 5.8l4 38.4 15.7-1.7-4-38.4c-0.5-4-3.9-7-7.9-7z" fill="#333333" /><path d="M645.4 763.8c204.5 0 259.7-122.4 267.1-249.2 5.6-95-19.1-167.2-116.2-167.2s-117.5 60.5-150.8 60.5-45.5-60.5-141.6-60.5S378 441 384.2 514.6c9.1 110.3 56.7 249.2 261.2 249.2z" fill="#EC494B" /><path d="M645.4 782.9c-97.4 0-171-30.4-218.8-90.4-35.2-44.2-55.3-101.8-61.4-176.2-3.7-44.6 5-89.2 24-122.3 24.6-42.9 64.3-65.6 114.8-65.6 24.3 0 45.5 3.5 64.7 10.7 14.8 5.5 28 13 41.5 23.7 2.8 2.2 5.6 4.5 8.8 7.3 1.2 1 2.4 2.1 3.9 3.4l3.6 3.2c5.6 4.9 8.6 7.4 11.4 9.2 4.1 2.8 6.3 3.1 7.8 3.1 1 0 2.7-0.2 5.7-1.6 3.4-1.6 7.4-4.3 13.8-9.3 0.9-0.7 3.4-2.6 5.6-4.3 1.7-1.3 3.3-2.6 4-3.1 4.4-3.4 7.9-6 11.4-8.5 14.7-10.4 28.7-17.8 44.1-23.2 20.1-7.1 41.8-10.5 66.2-10.5 52.6 0 90.7 19.3 113.1 57.4 18.2 31 25.5 73.5 22.2 130-4.6 78.9-25.6 138.9-64.3 183.5-23.9 27.6-54.6 48.6-91.2 62.5-37.2 13.8-81.1 21-130.9 21zM503.9 347.4c-43.3 0-77.2 19.4-98.2 56-17.1 29.8-24.9 70.3-21.5 111.2 5.9 70.5 24.6 124.8 57.4 165.9 21.6 27.1 49.2 47.8 82.2 61.6 34.3 14.3 75.2 21.6 121.7 21.6 47.4 0 89.1-6.7 123.9-19.9 33.6-12.8 61.8-32 83.6-57.2 35.8-41.2 55.3-97.5 59.6-172.1 3.1-52.6-3.3-91.6-19.6-119.2-9.2-15.7-21.9-27.7-37.5-35.6-16.2-8.2-36.1-12.3-59.1-12.3-22.2 0-41.8 3.1-59.9 9.4-13.7 4.8-26.2 11.4-39.5 20.8-3.3 2.3-6.6 4.8-10.7 8-0.6 0.5-2.2 1.7-3.9 3-2.3 1.8-4.7 3.7-5.7 4.4-7.7 5.9-12.5 9.1-17.2 11.4-4.9 2.3-9.4 3.4-13.9 3.4-6.1 0-11.9-2-18.4-6.4-3.5-2.4-7-5.2-13.4-10.7l-3.6-3.2c-1.4-1.3-2.6-2.3-3.7-3.3-3-2.6-5.6-4.7-8.1-6.7-11.9-9.4-23.5-16-36.4-20.8-17.1-6.2-36.1-9.3-58.1-9.3z" fill="#333333" /><path d="M648.6 556.1m-94.3 0a94.3 94.3 0 1 0 188.6 0 94.3 94.3 0 1 0-188.6 0Z" fill="#FF7B55" /><path d="M708.2 598.5c3.7-6.1-25.5-30.9-19.8-36.8 10.3-10.8 44.8-0.1 46.1-7 1.3-6.6-34.5-16.2-37.3-30.7-2.2-11.3 35.5-17.9 33.4-25.5-2.5-8.9-41.9-12.1-42.2-14.5 0 0 27.5-109.7 111.6-96.3 106 16.9 88.3 127.6 66.3 200.7s-93.1 140-131.8 134.3c-42.6-6.3-75.7-94.2-63.3-140.9 0.8-2.7 32.5 24.1 37 16.7z" fill="#FF5447" /><path d="M739.3 732.3c-2.1 0-4.2-0.1-6.1-0.4-16.6-2.4-32.5-14.6-46-35.1-22.9-34.9-33.7-85.4-25.1-117.7 0.8-3 3-5.5 6-6.6 4.8-1.8 8.3 0 15.6 4.9-0.7-1-1.4-2-1.9-3-6-10-3.4-16-0.2-19.4 6.1-6.4 15.6-7.9 25.1-8.1-8.8-5.4-16.9-12.1-18.7-21.2-0.9-4.7 0-11.7 9.5-18.1 4.4-3 9.8-5.4 15-7.7 0.3-0.1 0.6-0.2 0.9-0.4-5.5-1.4-11.9-2.7-15.3-3.3-3.4-0.7-6.3-1.2-8.5-1.8-2.7-0.7-9.8-2.4-10.5-9.7l-0.2-1.6 0.4-1.6c0.3-1.2 7.5-29.4 25.6-56.2 25-37 58.4-53.3 96.8-47.2 33.9 5.4 58.8 20.4 73.9 44.5 22.8 36.3 22.8 92.9 0 168.4-10.7 35.5-33.3 72.2-62 100.7-26.6 26.1-53.2 40.6-74.3 40.6z m-60.9-135.5c-2.1 27 7.7 63.6 24.7 89.6 10.3 15.6 21.9 25.1 32.8 26.7 15.2 2.2 40.4-11.5 64-35 26.6-26.4 47.4-60.1 57.2-92.7 21.1-69.9 21.8-121.3 2.1-152.7-12.2-19.5-32.1-31.2-60.7-35.8-30.8-4.9-56.9 8.1-77.7 38.7-10.5 15.5-17.1 31.9-20.4 41.7 0.4 0.1 0.8 0.2 1.2 0.2 21.1 4.1 35.2 7.6 38.2 18.3 1 3.4 1.2 10-7.9 15.8-3.3 2-7.4 3.9-11.7 5.8-3.6 1.6-9.7 4.3-12.7 6.4 3.3 4 13.9 9.8 18.3 12.1 4 2.1 7.7 4.2 10.6 6.2 6 4.2 8.5 9 7.5 14.3-0.7 3.4-3.4 9.2-13.7 10.1-3.5 0.3-7.8 0.1-12.3-0.2-4.4-0.2-13.1-0.7-18.5 0.2 1.9 2.8 4.7 6.2 6.6 8.6 8.4 10.5 15.7 19.7 10.4 28.2-1.7 2.8-4.5 4.8-7.9 5.5-7.8 1.9-17.1-3.4-30.1-12z" fill="#333333" /><path d="M595.7 598.5c-3.7-6.1 25.5-30.9 19.8-36.8-10.3-10.8-44.8-0.1-46.1-7-1.3-6.6 34.5-16.2 37.3-30.7 2.2-11.3-35.5-17.9-33.4-25.5 2.5-8.9 41.9-12.1 42.2-14.5 0 0-27.5-109.7-111.6-96.3-106 16.9-88.3 127.6-66.3 200.7 22 73 93.1 140 131.8 134.3 42.6-6.3 75.7-94.2 63.3-140.9-0.7-2.7-32.4 24.1-37 16.7z" fill="#FF5447" /><path d="M564.6 732.3c-21.1 0-47.7-14.5-74.1-40.8-28.7-28.5-51.3-65.2-62-100.7-22.7-75.4-22.7-132.1 0-168.4 15.1-24.1 40-39.1 73.9-44.5 38.3-6.1 71.8 10.2 96.8 47.2 18.1 26.8 25.3 55 25.6 56.2l0.4 1.6-0.2 1.6c-0.7 7.3-7.8 9.1-10.5 9.7-2.3 0.6-5.2 1.1-8.5 1.8-3.3 0.6-9.7 1.9-15.3 3.3 0.3 0.1 0.6 0.3 0.9 0.4 5.2 2.3 10.6 4.7 15 7.7 9.5 6.4 10.4 13.4 9.5 18.1-1.8 9.2-9.9 15.8-18.7 21.2 9.5 0.1 19 1.7 25.1 8.1 3.2 3.4 5.7 9.4-0.2 19.4-0.6 1-1.2 2-1.9 3 7.3-4.8 10.8-6.7 15.6-4.9 2.9 1.1 5.2 3.6 6 6.6 8.6 32.2-2.2 82.8-25.1 117.7-13.5 20.5-29.4 32.6-46 35.1-2.1 0.5-4.2 0.6-6.3 0.6z m-46.8-336.4c-4 0-8.2 0.3-12.4 1-28.6 4.6-48.5 16.3-60.7 35.8-19.7 31.4-19 82.8 2.1 152.7 9.8 32.5 30.7 66.3 57.2 92.7 23.7 23.5 48.8 37.2 64 35 10.9-1.6 22.6-11.1 32.8-26.7 17-25.9 26.8-62.6 24.7-89.6-13 8.6-22.3 13.9-30.1 12.2-3.3-0.7-6.1-2.7-7.9-5.5-5.3-8.6 2-17.7 10.4-28.2 1.9-2.4 4.6-5.8 6.6-8.6-5.4-0.9-14.1-0.5-18.5-0.2-4.5 0.2-8.8 0.5-12.3 0.2-10.3-0.8-13-6.7-13.7-10.1-1.1-5.3 1.5-10.1 7.5-14.3 2.9-2 6.6-4.1 10.6-6.2 4.4-2.4 15-8.1 18.3-12.1-2.9-2.1-9.1-4.8-12.7-6.4-4.3-1.9-8.4-3.8-11.7-5.8-9.1-5.7-8.9-12.3-7.9-15.7 3-10.7 17-14.2 38.2-18.3 0.4-0.1 0.8-0.2 1.2-0.2-3.3-9.8-9.9-26.2-20.4-41.7-18-26.7-39.9-40-65.3-40z" fill="#333333" /><path d="M349.3 255.1l6.5-24.4c3-11.4 14.7-18.1 26.1-15.1 11.4 3 18.1 14.7 15.1 26.1l-3.6 13.4h0.7c43.8 0 69.7 18.1 90.2 41.1l24.9 25.9c1.4 1.5 1.6 3.2 0.5 4.7-2 2.8-7.5 4.1-12.3 2.9l-82.7-19.9-34.6 48.5c-2 2.8-7.5 4.1-12.3 3-2.3-0.6-4.2-1.6-5.1-3l-34.6-48.5-84.7 20.3c-4.8 1.2-10.3-0.2-12.3-2.9-1-1.4-1-3.1 0.2-4.5l17.5-20.7c21.2-22.1 44.6-47 92-47h8.5z" fill="#5C9619" /><path d="M371.3 371.2c-2 0-3.9-0.2-5.7-0.6-4.6-1.1-8.4-3.5-10.7-6.7L324 320.6l-78.5 18.8c-7.4 1.8-17.4 0.1-22.3-6.6-3.6-5-3.3-11.5 0.7-16.2l17.9-21.1 0.6-0.6c21.1-22 47.3-49.3 98.3-49.3h1.3l4.6-17.3c4.4-16.4 21.4-26.2 37.8-21.8 8 2.1 14.6 7.2 18.7 14.4 4.1 7.1 5.2 15.4 3.1 23.4l-0.5 1.8c43.8 3.3 68.6 24.7 85.6 43.7l24.8 25.7c4.6 4.8 5.2 11.6 1.3 16.9-4.8 6.7-14.9 8.4-22.3 6.6l-76.4-18.4-30.9 43.2c-3.6 5.1-10.3 7.4-16.5 7.4z m-1.5-19.3h0.2c1.1 0.3 2.3 0.1 2.9 0l37.8-52.9 82.2 19.8-15.7-16.3c-29.8-33.4-58.7-37.9-83.1-37.9H381l6.8-25.4c0.8-3 0.4-6.2-1.2-8.9s-4.1-4.7-7.2-5.5c-6.3-1.7-12.8 2.1-14.4 8.3l-8.4 31.5h-15.9c-42.9 0-64 22.1-84.5 43.4l-0.4 0.4-9.5 11.2L332 299l37.8 52.9z" fill="#333333" /><path d="M744.418998 489.79533a12.9 24.3 75.001 1 0 46.944215-12.577787 12.9 24.3 75.001 1 0-46.944215 12.577787Z" fill="#FFB48A" /><path d="M771.671245 571.978143a24.3 12.9 8.998 1 0 4.03512-25.4825 24.3 12.9 8.998 1 0-4.03512 25.4825Z" fill="#FFB48A" /><path d="M735.7 625.1m-19.4 0a19.4 19.4 0 1 0 38.8 0 19.4 19.4 0 1 0-38.8 0Z" fill="#FFB48A" /><path d="M510.5 485.2a23.7 13.9 0 1 0 47.4 0 23.7 13.9 0 1 0-47.4 0Z" fill="#FFB48A" /><path d="M503.8 558.8a24.1 13.3 0 1 0 48.2 0 24.1 13.3 0 1 0-48.2 0Z" fill="#FFB48A" /><path d="M569.9 631.7m-19.4 0a19.4 19.4 0 1 0 38.8 0 19.4 19.4 0 1 0-38.8 0Z" fill="#FFB48A" /><path d="M189.6 538.9c12.7-0.7-3.9-34.9-5.7-68.4s11.1-69.3-1.5-68.6-36.3 28.1-34.1 70.5c2.3 42.4 28.7 67.2 41.3 66.5z" fill="#FFFFFF" /><path d="M207.4 572.3a11.9 9.5 0 1 0 23.8 0 11.9 9.5 0 1 0-23.8 0Z" fill="#FFFFFF" /></svg>