<?xml version="1.0" standalone="no"?><!DOCTYPE svg PUBLIC "-//W3C//DTD SVG 1.1//EN" "http://www.w3.org/Graphics/SVG/1.1/DTD/svg11.dtd"><svg t="1747982230421" class="icon" viewBox="0 0 1024 1024" version="1.1" xmlns="http://www.w3.org/2000/svg" p-id="20395" xmlns:xlink="http://www.w3.org/1999/xlink" width="200" height="200"><path d="M512 512m-512 0a512 512 0 1 0 1024 0 512 512 0 1 0-1024 0Z" fill="#09B361" p-id="20396"></path><path d="M665.856 231.744h-307.776a46.272 46.272 0 0 0-46.272 46.272v467.904a46.272 46.272 0 0 0 46.272 46.272h307.776a46.272 46.272 0 0 0 46.272-46.272v-467.904a46.272 46.272 0 0 0-46.272-46.272z m-134.4 520.448h-40.064a20.032 20.032 0 0 1 0-40.064h40.064a20.032 20.032 0 1 1 0 40.064z m140.096-91.328a11.264 11.264 0 0 1-11.264 11.264h-297.792a11.264 11.264 0 0 1-11.264-11.264v-377.92a11.264 11.264 0 0 1 11.264-11.264h297.792a11.264 11.264 0 0 1 11.264 11.264z" fill="#FFFFFF" p-id="20397"></path></svg>